solid Untitled
facet normal 0.0 0.0 1.0
  outer loop
    vertex 14.266701705648636 61.97588832206803 30.0
    vertex 12.266701705648636 70.97588832206802 30.0
    vertex 12.266701705648636 61.97588832206803 30.0
  endloop
endfacet
facet normal 0.0 0.0 1.0
  outer loop
    vertex 12.266701705648636 70.97588832206802 30.0
    vertex 14.266701705648636 61.97588832206803 30.0
    vertex 14.266701705648636 70.97588832206802 30.0
  endloop
endfacet
facet normal 0.0 0.0 1.0
  outer loop
    vertex 32.266701705648636 70.97588832206802 32.0
    vertex 12.266701705648636 75.97588832206803 32.0
    vertex 12.266701705648636 70.97588832206802 32.0
  endloop
endfacet
facet normal 0.0 0.0 1.0
  outer loop
    vertex 12.266701705648636 75.97588832206803 32.0
    vertex 32.266701705648636 70.97588832206802 32.0
    vertex 22.266701705648636 82.34353113326245 32.0
  endloop
endfacet
facet normal 0.0 0.0 1.0
  outer loop
    vertex 22.266701705648636 82.34353113326245 32.0
    vertex 32.266701705648636 70.97588832206802 32.0
    vertex 32.266701705648636 75.97588832206803 32.0
  endloop
endfacet
facet normal 0.0 0.0 1.0
  outer loop
    vertex 22.266701705648636 82.34353113326245 32.0
    vertex 32.266701705648636 75.97588832206803 32.0
    vertex 34.266701705648636 77.97588832206802 32.0
  endloop
endfacet
facet normal 0.0 0.0 1.0
  outer loop
    vertex 34.266701705648636 77.97588832206802 32.0
    vertex 32.266701705648636 75.97588832206803 32.0
    vertex 34.266701705648636 75.97588832206803 32.0
  endloop
endfacet
facet normal 0.0 0.0 1.0
  outer loop
    vertex 12.266701705648636 75.97588832206803 32.0
    vertex 10.266701705648638 77.97588832206802 32.0
    vertex 10.266701705648638 75.97588832206803 32.0
  endloop
endfacet
facet normal 0.0 0.0 1.0
  outer loop
    vertex 10.266701705648638 77.97588832206802 32.0
    vertex 12.266701705648636 75.97588832206803 32.0
    vertex 22.266701705648636 82.34353113326245 32.0
  endloop
endfacet
facet normal 0.0 0.0 1.0
  outer loop
    vertex 30.266701705648632 61.97588832206803 1.9999999999999998
    vertex 14.266701705648636 73.97588832206803 1.9999999999999998
    vertex 14.266701705648636 61.97588832206803 1.9999999999999998
  endloop
endfacet
facet normal 0.0 0.0 1.0
  outer loop
    vertex 14.266701705648636 73.97588832206803 1.9999999999999998
    vertex 30.266701705648632 61.97588832206803 1.9999999999999998
    vertex 30.266701705648632 73.97588832206803 1.9999999999999998
  endloop
endfacet
facet normal 0.0 0.0 -1.0
  outer loop
    vertex 30.266701705648632 75.97588832206803 30.0
    vertex 14.266701705648636 73.97588832206803 30.0
    vertex 14.266701705648636 75.97588832206803 30.0
  endloop
endfacet
facet normal 0.0 0.0 -1.0
  outer loop
    vertex 14.266701705648636 73.97588832206803 30.0
    vertex 30.266701705648632 75.97588832206803 30.0
    vertex 30.266701705648632 73.97588832206803 30.0
  endloop
endfacet
facet normal 0.0 -1.0 0.0
  outer loop
    vertex 32.266701705648636 70.97588832206802 32.0
    vertex 30.266701705648632 70.97588832206802 30.0
    vertex 32.266701705648636 70.97588832206802 30.0
  endloop
endfacet
facet normal 0.0 -1.0 0.0
  outer loop
    vertex 30.266701705648632 70.97588832206802 30.0
    vertex 32.266701705648636 70.97588832206802 32.0
    vertex 14.266701705648636 70.97588832206802 30.0
  endloop
endfacet
facet normal 0.0 -1.0 0.0
  outer loop
    vertex 14.266701705648636 70.97588832206802 30.0
    vertex 32.266701705648636 70.97588832206802 32.0
    vertex 12.266701705648636 70.97588832206802 30.0
  endloop
endfacet
facet normal 0.0 -1.0 0.0
  outer loop
    vertex 12.266701705648636 70.97588832206802 30.0
    vertex 32.266701705648636 70.97588832206802 32.0
    vertex 12.266701705648636 70.97588832206802 32.0
  endloop
endfacet
facet normal 0.0 0.0 -1.0
  outer loop
    vertex 30.266701705648632 73.97588832206803 30.0
    vertex 14.266701705648636 70.97588832206802 30.0
    vertex 14.266701705648636 73.97588832206803 30.0
  endloop
endfacet
facet normal 0.0 0.0 -1.0
  outer loop
    vertex 14.266701705648636 70.97588832206802 30.0
    vertex 30.266701705648632 73.97588832206803 30.0
    vertex 30.266701705648632 70.97588832206802 30.0
  endloop
endfacet
facet normal 0.0 0.0 -1.0
  outer loop
    vertex 34.266701705648636 77.97588832206802 0.0
    vertex 32.266701705648636 75.97588832206803 0.0
    vertex 22.266701705648636 82.34353113326245 0.0
  endloop
endfacet
facet normal 0.0 0.0 -1.0
  outer loop
    vertex 32.266701705648636 75.97588832206803 0.0
    vertex 34.266701705648636 77.97588832206802 0.0
    vertex 34.266701705648636 75.97588832206803 0.0
  endloop
endfacet
facet normal 0.0 0.0 -1.0
  outer loop
    vertex 22.266701705648636 82.34353113326245 0.0
    vertex 10.266701705648638 75.97588832206803 0.0
    vertex 10.266701705648638 77.97588832206802 0.0
  endloop
endfacet
facet normal 0.0 0.0 -1.0
  outer loop
    vertex 10.266701705648638 75.97588832206803 0.0
    vertex 22.266701705648636 82.34353113326245 0.0
    vertex 12.266701705648636 75.97588832206803 0.0
  endloop
endfacet
facet normal 0.0 0.0 -1.0
  outer loop
    vertex 12.266701705648636 75.97588832206803 0.0
    vertex 22.266701705648636 82.34353113326245 0.0
    vertex 12.266701705648636 61.97588832206803 0.0
  endloop
endfacet
facet normal 0.0 0.0 -1.0
  outer loop
    vertex 12.266701705648636 61.97588832206803 0.0
    vertex 22.266701705648636 82.34353113326245 0.0
    vertex 32.266701705648636 61.97588832206803 0.0
  endloop
endfacet
facet normal 0.0 0.0 -1.0
  outer loop
    vertex 32.266701705648636 61.97588832206803 0.0
    vertex 22.266701705648636 82.34353113326245 0.0
    vertex 32.266701705648636 75.97588832206803 0.0
  endloop
endfacet
facet normal 0.34202014332566893 0.9396926207859083 0.0
  outer loop
    vertex 22.266701705648636 82.34353113326245 32.0
    vertex 34.266701705648636 77.97588832206802 0.0
    vertex 22.266701705648636 82.34353113326245 0.0
  endloop
endfacet
facet normal 0.34202014332566893 0.9396926207859083 0.0
  outer loop
    vertex 34.266701705648636 77.97588832206802 0.0
    vertex 22.266701705648636 82.34353113326245 32.0
    vertex 34.266701705648636 77.97588832206802 32.0
  endloop
endfacet
facet normal 0.0 -1.0 0.0
  outer loop
    vertex 34.266701705648636 75.97588832206803 32.0
    vertex 32.266701705648636 75.97588832206803 0.0
    vertex 34.266701705648636 75.97588832206803 0.0
  endloop
endfacet
facet normal 0.0 -1.0 0.0
  outer loop
    vertex 32.266701705648636 75.97588832206803 0.0
    vertex 34.266701705648636 75.97588832206803 32.0
    vertex 32.266701705648636 75.97588832206803 30.0
  endloop
endfacet
facet normal 0.0 -1.0 0.0
  outer loop
    vertex 32.266701705648636 75.97588832206803 30.0
    vertex 34.266701705648636 75.97588832206803 32.0
    vertex 32.266701705648636 75.97588832206803 32.0
  endloop
endfacet
facet normal 1.0 0.0 0.0
  outer loop
    vertex 34.266701705648636 77.97588832206802 0.0
    vertex 34.266701705648636 75.97588832206803 32.0
    vertex 34.266701705648636 75.97588832206803 0.0
  endloop
endfacet
facet normal 1.0 0.0 0.0
  outer loop
    vertex 34.266701705648636 75.97588832206803 32.0
    vertex 34.266701705648636 77.97588832206802 0.0
    vertex 34.266701705648636 77.97588832206802 32.0
  endloop
endfacet
facet normal -0.34202014332566893 0.9396926207859083 0.0
  outer loop
    vertex 10.266701705648638 77.97588832206802 32.0
    vertex 22.266701705648636 82.34353113326245 0.0
    vertex 10.266701705648638 77.97588832206802 0.0
  endloop
endfacet
facet normal -0.34202014332566893 0.9396926207859083 0.0
  outer loop
    vertex 22.266701705648636 82.34353113326245 0.0
    vertex 10.266701705648638 77.97588832206802 32.0
    vertex 22.266701705648636 82.34353113326245 32.0
  endloop
endfacet
facet normal -1.0 0.0 0.0
  outer loop
    vertex 10.266701705648638 77.97588832206802 32.0
    vertex 10.266701705648638 75.97588832206803 0.0
    vertex 10.266701705648638 75.97588832206803 32.0
  endloop
endfacet
facet normal -1.0 0.0 0.0
  outer loop
    vertex 10.266701705648638 75.97588832206803 0.0
    vertex 10.266701705648638 77.97588832206802 32.0
    vertex 10.266701705648638 77.97588832206802 0.0
  endloop
endfacet
facet normal 0.0 -1.0 0.0
  outer loop
    vertex 12.266701705648636 75.97588832206803 30.0
    vertex 10.266701705648638 75.97588832206803 0.0
    vertex 12.266701705648636 75.97588832206803 0.0
  endloop
endfacet
facet normal 0.0 -1.0 0.0
  outer loop
    vertex 10.266701705648638 75.97588832206803 0.0
    vertex 12.266701705648636 75.97588832206803 30.0
    vertex 10.266701705648638 75.97588832206803 32.0
  endloop
endfacet
facet normal 0.0 -1.0 0.0
  outer loop
    vertex 10.266701705648638 75.97588832206803 32.0
    vertex 12.266701705648636 75.97588832206803 30.0
    vertex 12.266701705648636 75.97588832206803 32.0
  endloop
endfacet
facet normal 1.0 0.0 0.0
  outer loop
    vertex 14.266701705648636 73.97588832206803 1.9999999999999998
    vertex 14.266701705648636 61.97588832206803 28.0
    vertex 14.266701705648636 61.97588832206803 1.9999999999999998
  endloop
endfacet
facet normal 1.0 0.0 0.0
  outer loop
    vertex 14.266701705648636 61.97588832206803 28.0
    vertex 14.266701705648636 73.97588832206803 1.9999999999999998
    vertex 14.266701705648636 61.97588832206803 30.0
  endloop
endfacet
facet normal 1.0 0.0 0.0
  outer loop
    vertex 14.266701705648636 61.97588832206803 30.0
    vertex 14.266701705648636 73.97588832206803 1.9999999999999998
    vertex 14.266701705648636 70.97588832206802 30.0
  endloop
endfacet
facet normal 1.0 0.0 0.0
  outer loop
    vertex 14.266701705648636 70.97588832206802 30.0
    vertex 14.266701705648636 73.97588832206803 1.9999999999999998
    vertex 14.266701705648636 73.97588832206803 30.0
  endloop
endfacet
facet normal -1.0 0.0 0.0
  outer loop
    vertex 30.266701705648632 70.97588832206802 30.0
    vertex 30.266701705648632 61.97588832206803 1.9999999999999998
    vertex 30.266701705648632 61.97588832206803 30.0
  endloop
endfacet
facet normal -1.0 0.0 0.0
  outer loop
    vertex 30.266701705648632 61.97588832206803 1.9999999999999998
    vertex 30.266701705648632 70.97588832206802 30.0
    vertex 30.266701705648632 73.97588832206803 1.9999999999999998
  endloop
endfacet
facet normal -1.0 0.0 0.0
  outer loop
    vertex 30.266701705648632 73.97588832206803 1.9999999999999998
    vertex 30.266701705648632 70.97588832206802 30.0
    vertex 30.266701705648632 73.97588832206803 30.0
  endloop
endfacet
facet normal 0.0 -1.0 0.0
  outer loop
    vertex 32.266701705648636 61.97588832206803 0.0
    vertex 30.266701705648632 61.97588832206803 1.9999999999999998
    vertex 12.266701705648636 61.97588832206803 0.0
  endloop
endfacet
facet normal 0.0 -1.0 0.0
  outer loop
    vertex 30.266701705648632 61.97588832206803 1.9999999999999998
    vertex 32.266701705648636 61.97588832206803 0.0
    vertex 32.266701705648636 61.97588832206803 30.0
  endloop
endfacet
facet normal 0.0 -1.0 0.0
  outer loop
    vertex 30.266701705648632 61.97588832206803 1.9999999999999998
    vertex 32.266701705648636 61.97588832206803 30.0
    vertex 30.266701705648632 61.97588832206803 30.0
  endloop
endfacet
facet normal 0.0 -1.0 0.0
  outer loop
    vertex 12.266701705648636 61.97588832206803 0.0
    vertex 14.266701705648636 61.97588832206803 1.9999999999999998
    vertex 12.266701705648636 61.97588832206803 30.0
  endloop
endfacet
facet normal 0.0 -1.0 0.0
  outer loop
    vertex 14.266701705648636 61.97588832206803 1.9999999999999998
    vertex 12.266701705648636 61.97588832206803 0.0
    vertex 30.266701705648632 61.97588832206803 1.9999999999999998
  endloop
endfacet
facet normal 0.0 -1.0 0.0
  outer loop
    vertex 12.266701705648636 61.97588832206803 30.0
    vertex 14.266701705648636 61.97588832206803 1.9999999999999998
    vertex 14.266701705648636 61.97588832206803 28.0
  endloop
endfacet
facet normal 0.0 -1.0 0.0
  outer loop
    vertex 12.266701705648636 61.97588832206803 30.0
    vertex 14.266701705648636 61.97588832206803 28.0
    vertex 14.266701705648636 61.97588832206803 30.0
  endloop
endfacet
facet normal 1.0 0.0 0.0
  outer loop
    vertex 32.266701705648636 75.97588832206803 0.0
    vertex 32.266701705648636 61.97588832206803 30.0
    vertex 32.266701705648636 61.97588832206803 0.0
  endloop
endfacet
facet normal 1.0 0.0 0.0
  outer loop
    vertex 32.266701705648636 61.97588832206803 30.0
    vertex 32.266701705648636 75.97588832206803 0.0
    vertex 32.266701705648636 70.97588832206802 30.0
  endloop
endfacet
facet normal 1.0 0.0 0.0
  outer loop
    vertex 32.266701705648636 70.97588832206802 30.0
    vertex 32.266701705648636 75.97588832206803 0.0
    vertex 32.266701705648636 70.97588832206802 32.0
  endloop
endfacet
facet normal 1.0 0.0 0.0
  outer loop
    vertex 32.266701705648636 70.97588832206802 32.0
    vertex 32.266701705648636 75.97588832206803 0.0
    vertex 32.266701705648636 75.97588832206803 32.0
  endloop
endfacet
facet normal 1.0 0.0 0.0
  outer loop
    vertex 32.266701705648636 75.97588832206803 32.0
    vertex 32.266701705648636 75.97588832206803 0.0
    vertex 32.266701705648636 75.97588832206803 30.0
  endloop
endfacet
facet normal -1.0 0.0 0.0
  outer loop
    vertex 12.266701705648636 75.97588832206803 32.0
    vertex 12.266701705648636 70.97588832206802 30.0
    vertex 12.266701705648636 70.97588832206802 32.0
  endloop
endfacet
facet normal -1.0 0.0 0.0
  outer loop
    vertex 12.266701705648636 70.97588832206802 30.0
    vertex 12.266701705648636 61.97588832206803 0.0
    vertex 12.266701705648636 61.97588832206803 30.0
  endloop
endfacet
facet normal -1.0 0.0 0.0
  outer loop
    vertex 12.266701705648636 61.97588832206803 0.0
    vertex 12.266701705648636 70.97588832206802 30.0
    vertex 12.266701705648636 75.97588832206803 0.0
  endloop
endfacet
facet normal -1.0 0.0 0.0
  outer loop
    vertex 12.266701705648636 75.97588832206803 0.0
    vertex 12.266701705648636 70.97588832206802 30.0
    vertex 12.266701705648636 75.97588832206803 32.0
  endloop
endfacet
facet normal -1.0 0.0 0.0
  outer loop
    vertex 12.266701705648636 75.97588832206803 0.0
    vertex 12.266701705648636 75.97588832206803 32.0
    vertex 12.266701705648636 75.97588832206803 30.0
  endloop
endfacet
facet normal 0.0 -1.0 0.0
  outer loop
    vertex 30.266701705648632 73.97588832206803 30.0
    vertex 14.266701705648636 73.97588832206803 1.9999999999999998
    vertex 30.266701705648632 73.97588832206803 1.9999999999999998
  endloop
endfacet
facet normal 0.0 -1.0 0.0
  outer loop
    vertex 14.266701705648636 73.97588832206803 1.9999999999999998
    vertex 30.266701705648632 73.97588832206803 30.0
    vertex 14.266701705648636 73.97588832206803 30.0
  endloop
endfacet
facet normal 0.0 0.0 1.0
  outer loop
    vertex 32.266701705648636 61.97588832206803 30.0
    vertex 30.266701705648632 70.97588832206802 30.0
    vertex 30.266701705648632 61.97588832206803 30.0
  endloop
endfacet
facet normal 0.0 0.0 1.0
  outer loop
    vertex 30.266701705648632 70.97588832206802 30.0
    vertex 32.266701705648636 61.97588832206803 30.0
    vertex 32.266701705648636 70.97588832206802 30.0
  endloop
endfacet
endsolid Untitled
