solid RHT v6
facet normal 0.0 0.0 1.0
  outer loop
    vertex 30.266701705648632 61.97588832206803 1.9999999999999998
    vertex 14.266701705648636 73.97588832206803 1.9999999999999998
    vertex 14.266701705648636 61.97588832206803 1.9999999999999998
  endloop
endfacet
facet normal 0.0 0.0 1.0
  outer loop
    vertex 14.266701705648636 73.97588832206803 1.9999999999999998
    vertex 30.266701705648632 61.97588832206803 1.9999999999999998
    vertex 30.266701705648632 73.97588832206803 1.9999999999999998
  endloop
endfacet
facet normal 0.0 0.0 -1.0
  outer loop
    vertex 34.266701705648636 77.97588832206802 0.0
    vertex 32.266701705648636 75.97588832206803 0.0
    vertex 22.266701705648636 82.34353113326245 0.0
  endloop
endfacet
facet normal 0.0 0.0 -1.0
  outer loop
    vertex 32.266701705648636 75.97588832206803 0.0
    vertex 34.266701705648636 77.97588832206802 0.0
    vertex 34.266701705648636 75.97588832206803 0.0
  endloop
endfacet
facet normal 0.0 0.0 -1.0
  outer loop
    vertex 22.266701705648636 82.34353113326245 0.0
    vertex 10.266701705648638 75.97588832206803 0.0
    vertex 10.266701705648638 77.97588832206802 0.0
  endloop
endfacet
facet normal 0.0 0.0 -1.0
  outer loop
    vertex 10.266701705648638 75.97588832206803 0.0
    vertex 22.266701705648636 82.34353113326245 0.0
    vertex 12.266701705648636 75.97588832206803 0.0
  endloop
endfacet
facet normal 0.0 0.0 -1.0
  outer loop
    vertex 12.266701705648636 75.97588832206803 0.0
    vertex 22.266701705648636 82.34353113326245 0.0
    vertex 12.266701705648636 61.97588832206803 0.0
  endloop
endfacet
facet normal 0.0 0.0 -1.0
  outer loop
    vertex 12.266701705648636 61.97588832206803 0.0
    vertex 22.266701705648636 82.34353113326245 0.0
    vertex 32.266701705648636 61.97588832206803 0.0
  endloop
endfacet
facet normal 0.0 0.0 -1.0
  outer loop
    vertex 32.266701705648636 61.97588832206803 0.0
    vertex 22.266701705648636 82.34353113326245 0.0
    vertex 32.266701705648636 75.97588832206803 0.0
  endloop
endfacet
facet normal 0.34202014332566893 0.9396926207859083 0.0
  outer loop
    vertex 22.266701705648636 82.34353113326245 28.000000000000018
    vertex 34.266701705648636 77.97588832206802 0.0
    vertex 22.266701705648636 82.34353113326245 0.0
  endloop
endfacet
facet normal 0.34202014332566893 0.9396926207859083 0.0
  outer loop
    vertex 34.266701705648636 77.97588832206802 0.0
    vertex 22.266701705648636 82.34353113326245 28.000000000000018
    vertex 34.266701705648636 77.97588832206802 28.000000000000018
  endloop
endfacet
facet normal 0.0 -1.0 0.0
  outer loop
    vertex 34.266701705648636 75.97588832206803 28.000000000000018
    vertex 32.266701705648636 75.97588832206803 0.0
    vertex 34.266701705648636 75.97588832206803 0.0
  endloop
endfacet
facet normal 0.0 -1.0 0.0
  outer loop
    vertex 32.266701705648636 75.97588832206803 0.0
    vertex 34.266701705648636 75.97588832206803 28.000000000000018
    vertex 32.266701705648636 75.97588832206803 28.000000000000018
  endloop
endfacet
facet normal 1.0 0.0 0.0
  outer loop
    vertex 34.266701705648636 77.97588832206802 0.0
    vertex 34.266701705648636 75.97588832206803 28.000000000000018
    vertex 34.266701705648636 75.97588832206803 0.0
  endloop
endfacet
facet normal 1.0 0.0 0.0
  outer loop
    vertex 34.266701705648636 75.97588832206803 28.000000000000018
    vertex 34.266701705648636 77.97588832206802 0.0
    vertex 34.266701705648636 77.97588832206802 28.000000000000018
  endloop
endfacet
facet normal -0.34202014332566893 0.9396926207859083 0.0
  outer loop
    vertex 10.266701705648638 77.97588832206802 28.000000000000018
    vertex 22.266701705648636 82.34353113326245 0.0
    vertex 10.266701705648638 77.97588832206802 0.0
  endloop
endfacet
facet normal -0.34202014332566893 0.9396926207859083 0.0
  outer loop
    vertex 22.266701705648636 82.34353113326245 0.0
    vertex 10.266701705648638 77.97588832206802 28.000000000000018
    vertex 22.266701705648636 82.34353113326245 28.000000000000018
  endloop
endfacet
facet normal -1.0 0.0 0.0
  outer loop
    vertex 10.266701705648638 77.97588832206802 28.000000000000018
    vertex 10.266701705648638 75.97588832206803 0.0
    vertex 10.266701705648638 75.97588832206803 28.000000000000018
  endloop
endfacet
facet normal -1.0 0.0 0.0
  outer loop
    vertex 10.266701705648638 75.97588832206803 0.0
    vertex 10.266701705648638 77.97588832206802 28.000000000000018
    vertex 10.266701705648638 77.97588832206802 0.0
  endloop
endfacet
facet normal 0.0 -1.0 0.0
  outer loop
    vertex 12.266701705648636 75.97588832206803 28.000000000000018
    vertex 10.266701705648638 75.97588832206803 0.0
    vertex 12.266701705648636 75.97588832206803 0.0
  endloop
endfacet
facet normal 0.0 -1.0 0.0
  outer loop
    vertex 10.266701705648638 75.97588832206803 0.0
    vertex 12.266701705648636 75.97588832206803 28.000000000000018
    vertex 10.266701705648638 75.97588832206803 28.000000000000018
  endloop
endfacet
facet normal 1.0 0.0 0.0
  outer loop
    vertex 14.266701705648636 73.97588832206803 1.9999999999999998
    vertex 14.266701705648636 61.97588832206803 28.000000000000004
    vertex 14.266701705648636 61.97588832206803 1.9999999999999998
  endloop
endfacet
facet normal 1.0 0.0 0.0
  outer loop
    vertex 14.266701705648636 61.97588832206803 28.000000000000004
    vertex 14.266701705648636 73.97588832206803 1.9999999999999998
    vertex 14.266701705648636 73.97588832206803 28.000000000000004
  endloop
endfacet
facet normal -1.0 0.0 0.0
  outer loop
    vertex 30.266701705648632 73.97588832206803 28.000000000000004
    vertex 30.266701705648632 61.97588832206803 1.9999999999999998
    vertex 30.266701705648632 61.97588832206803 28.000000000000004
  endloop
endfacet
facet normal -1.0 0.0 0.0
  outer loop
    vertex 30.266701705648632 61.97588832206803 1.9999999999999998
    vertex 30.266701705648632 73.97588832206803 28.000000000000004
    vertex 30.266701705648632 73.97588832206803 1.9999999999999998
  endloop
endfacet
facet normal 0.0 -1.0 0.0
  outer loop
    vertex 32.266701705648636 61.97588832206803 0.0
    vertex 30.266701705648632 61.97588832206803 1.9999999999999998
    vertex 12.266701705648636 61.97588832206803 0.0
  endloop
endfacet
facet normal 0.0 -1.0 0.0
  outer loop
    vertex 30.266701705648632 61.97588832206803 1.9999999999999998
    vertex 32.266701705648636 61.97588832206803 0.0
    vertex 32.266701705648636 61.97588832206803 28.000000000000004
  endloop
endfacet
facet normal 0.0 -1.0 0.0
  outer loop
    vertex 30.266701705648632 61.97588832206803 1.9999999999999998
    vertex 32.266701705648636 61.97588832206803 28.000000000000004
    vertex 30.266701705648632 61.97588832206803 28.000000000000004
  endloop
endfacet
facet normal 0.0 -1.0 0.0
  outer loop
    vertex 12.266701705648636 61.97588832206803 0.0
    vertex 14.266701705648636 61.97588832206803 1.9999999999999998
    vertex 12.266701705648636 61.97588832206803 28.000000000000004
  endloop
endfacet
facet normal 0.0 -1.0 0.0
  outer loop
    vertex 14.266701705648636 61.97588832206803 1.9999999999999998
    vertex 12.266701705648636 61.97588832206803 0.0
    vertex 30.266701705648632 61.97588832206803 1.9999999999999998
  endloop
endfacet
facet normal 0.0 -1.0 0.0
  outer loop
    vertex 12.266701705648636 61.97588832206803 28.000000000000004
    vertex 14.266701705648636 61.97588832206803 1.9999999999999998
    vertex 14.266701705648636 61.97588832206803 28.000000000000004
  endloop
endfacet
facet normal 1.0 0.0 0.0
  outer loop
    vertex 32.266701705648636 75.97588832206803 0.0
    vertex 32.266701705648636 61.97588832206803 28.000000000000004
    vertex 32.266701705648636 61.97588832206803 0.0
  endloop
endfacet
facet normal 1.0 0.0 0.0
  outer loop
    vertex 32.266701705648636 61.97588832206803 28.000000000000004
    vertex 32.266701705648636 75.97588832206803 0.0
    vertex 32.266701705648636 75.97588832206803 28.000000000000018
  endloop
endfacet
facet normal -1.0 0.0 0.0
  outer loop
    vertex 12.266701705648636 75.97588832206803 28.000000000000018
    vertex 12.266701705648636 61.97588832206803 0.0
    vertex 12.266701705648636 61.97588832206803 28.000000000000004
  endloop
endfacet
facet normal -1.0 0.0 0.0
  outer loop
    vertex 12.266701705648636 61.97588832206803 0.0
    vertex 12.266701705648636 75.97588832206803 28.000000000000018
    vertex 12.266701705648636 75.97588832206803 0.0
  endloop
endfacet
facet normal 0.0 -1.0 0.0
  outer loop
    vertex 30.266701705648632 73.97588832206803 28.000000000000004
    vertex 14.266701705648636 73.97588832206803 1.9999999999999998
    vertex 30.266701705648632 73.97588832206803 1.9999999999999998
  endloop
endfacet
facet normal 0.0 -1.0 0.0
  outer loop
    vertex 14.266701705648636 73.97588832206803 1.9999999999999998
    vertex 30.266701705648632 73.97588832206803 28.000000000000004
    vertex 14.266701705648636 73.97588832206803 28.000000000000004
  endloop
endfacet
facet normal -3.2149385411575206e-32 -6.426495123574521e-16 1.0
  outer loop
    vertex 14.266701705648636 61.97588832206803 28.000000000000004
    vertex 12.266701705648636 75.97588832206803 28.000000000000018
    vertex 12.266701705648636 61.97588832206803 28.000000000000004
  endloop
endfacet
facet normal -3.2149385411575206e-32 -6.426495123574521e-16 1.0
  outer loop
    vertex 32.266701705648636 61.97588832206803 28.000000000000004
    vertex 30.266701705648632 73.97588832206803 28.000000000000004
    vertex 30.266701705648632 61.97588832206803 28.000000000000004
  endloop
endfacet
facet normal -3.2149385411575206e-32 -6.426495123574521e-16 1.0
  outer loop
    vertex 12.266701705648636 75.97588832206803 28.000000000000018
    vertex 10.266701705648638 77.97588832206802 28.000000000000018
    vertex 10.266701705648638 75.97588832206803 28.000000000000018
  endloop
endfacet
facet normal -3.2149385411575206e-32 -6.426495123574521e-16 1.0
  outer loop
    vertex 10.266701705648638 77.97588832206802 28.000000000000018
    vertex 12.266701705648636 75.97588832206803 28.000000000000018
    vertex 22.266701705648636 82.34353113326245 28.000000000000018
  endloop
endfacet
facet normal -3.2149385411575206e-32 -6.426495123574521e-16 1.0
  outer loop
    vertex 22.266701705648636 82.34353113326245 28.000000000000018
    vertex 12.266701705648636 75.97588832206803 28.000000000000018
    vertex 14.266701705648636 73.97588832206803 28.000000000000004
  endloop
endfacet
facet normal -3.2149385411575206e-32 -6.426495123574521e-16 1.0
  outer loop
    vertex 14.266701705648636 73.97588832206803 28.000000000000004
    vertex 12.266701705648636 75.97588832206803 28.000000000000018
    vertex 14.266701705648636 61.97588832206803 28.000000000000004
  endloop
endfacet
facet normal -3.2149385411575206e-32 -6.426495123574521e-16 1.0
  outer loop
    vertex 22.266701705648636 82.34353113326245 28.000000000000018
    vertex 14.266701705648636 73.97588832206803 28.000000000000004
    vertex 30.266701705648632 73.97588832206803 28.000000000000004
  endloop
endfacet
facet normal -3.2149385411575206e-32 -6.426495123574521e-16 1.0
  outer loop
    vertex 22.266701705648636 82.34353113326245 28.000000000000018
    vertex 30.266701705648632 73.97588832206803 28.000000000000004
    vertex 34.266701705648636 77.97588832206802 28.000000000000018
  endloop
endfacet
facet normal -3.2149385411575206e-32 -6.426495123574521e-16 1.0
  outer loop
    vertex 34.266701705648636 77.97588832206802 28.000000000000018
    vertex 30.266701705648632 73.97588832206803 28.000000000000004
    vertex 32.266701705648636 75.97588832206803 28.000000000000018
  endloop
endfacet
facet normal -3.2149385411575206e-32 -6.426495123574521e-16 1.0
  outer loop
    vertex 32.266701705648636 75.97588832206803 28.000000000000018
    vertex 30.266701705648632 73.97588832206803 28.000000000000004
    vertex 32.266701705648636 61.97588832206803 28.000000000000004
  endloop
endfacet
facet normal -3.2149385411575206e-32 -6.426495123574521e-16 1.0
  outer loop
    vertex 34.266701705648636 77.97588832206802 28.000000000000018
    vertex 32.266701705648636 75.97588832206803 28.000000000000018
    vertex 34.266701705648636 75.97588832206803 28.000000000000018
  endloop
endfacet
facet normal 0.0 0.0 1.0
  outer loop
    vertex 5.169494696093099 55.85932862616788 0.0
    vertex 39.51661204814403 84.74051973983427 0.0
    vertex 5.169494696093097 84.74051973983427 0.0
  endloop
endfacet
facet normal 0.0 0.0 1.0
  outer loop
    vertex 39.51661204814403 84.74051973983427 0.0
    vertex 5.169494696093099 55.85932862616788 0.0
    vertex 39.51661204814403 55.85932862616788 0.0
  endloop
endfacet
facet normal -0.0 -0.0 -1.0
  outer loop
    vertex 39.51661204814403 84.74051973983427 -0.49999999999999994
    vertex 5.169494696093099 55.85932862616788 -0.49999999999999994
    vertex 5.169494696093097 84.74051973983427 -0.49999999999999994
  endloop
endfacet
facet normal -0.0 -0.0 -1.0
  outer loop
    vertex 5.169494696093099 55.85932862616788 -0.49999999999999994
    vertex 39.51661204814403 84.74051973983427 -0.49999999999999994
    vertex 39.51661204814403 55.85932862616788 -0.49999999999999994
  endloop
endfacet
facet normal 0.0 1.0 0.0
  outer loop
    vertex 5.169494696093097 84.74051973983427 0.0
    vertex 39.51661204814403 84.74051973983427 -0.49999999999999994
    vertex 5.169494696093097 84.74051973983427 -0.49999999999999994
  endloop
endfacet
facet normal 0.0 1.0 0.0
  outer loop
    vertex 39.51661204814403 84.74051973983427 -0.49999999999999994
    vertex 5.169494696093097 84.74051973983427 0.0
    vertex 39.51661204814403 84.74051973983427 0.0
  endloop
endfacet
facet normal -1.0 -4.882012087814321e-17 -0.0
  outer loop
    vertex 5.169494696093097 84.74051973983427 0.0
    vertex 5.169494696093099 55.85932862616788 -0.49999999999999994
    vertex 5.169494696093099 55.85932862616788 0.0
  endloop
endfacet
facet normal -1.0 -4.882012087814321e-17 -0.0
  outer loop
    vertex 5.169494696093099 55.85932862616788 -0.49999999999999994
    vertex 5.169494696093097 84.74051973983427 0.0
    vertex 5.169494696093097 84.74051973983427 -0.49999999999999994
  endloop
endfacet
facet normal 0.0 -1.0 0.0
  outer loop
    vertex 39.51661204814403 55.85932862616788 0.0
    vertex 5.169494696093099 55.85932862616788 -0.49999999999999994
    vertex 39.51661204814403 55.85932862616788 -0.49999999999999994
  endloop
endfacet
facet normal 0.0 -1.0 0.0
  outer loop
    vertex 5.169494696093099 55.85932862616788 -0.49999999999999994
    vertex 39.51661204814403 55.85932862616788 0.0
    vertex 5.169494696093099 55.85932862616788 0.0
  endloop
endfacet
facet normal 1.0 0.0 0.0
  outer loop
    vertex 39.51661204814403 84.74051973983427 -0.49999999999999994
    vertex 39.51661204814403 55.85932862616788 0.0
    vertex 39.51661204814403 55.85932862616788 -0.49999999999999994
  endloop
endfacet
facet normal 1.0 0.0 0.0
  outer loop
    vertex 39.51661204814403 55.85932862616788 0.0
    vertex 39.51661204814403 84.74051973983427 -0.49999999999999994
    vertex 39.51661204814403 84.74051973983427 0.0
  endloop
endfacet
endsolid RHT v6
