solid Untitled
facet normal 0.0 0.0 1.0
  outer loop
    vertex 30.266701705648632 61.97588832206803 1.9999999999999998
    vertex 14.266701705648636 73.97588832206803 1.9999999999999998
    vertex 14.266701705648636 61.97588832206803 1.9999999999999998
  endloop
endfacet
facet normal 0.0 0.0 1.0
  outer loop
    vertex 14.266701705648636 73.97588832206803 1.9999999999999998
    vertex 30.266701705648632 61.97588832206803 1.9999999999999998
    vertex 30.266701705648632 73.97588832206803 1.9999999999999998
  endloop
endfacet
facet normal 0.0 0.0 -1.0
  outer loop
    vertex 34.266701705648636 77.97588832206802 0.0
    vertex 32.266701705648636 75.97588832206803 0.0
    vertex 22.266701705648636 82.34353113326245 0.0
  endloop
endfacet
facet normal 0.0 0.0 -1.0
  outer loop
    vertex 32.266701705648636 75.97588832206803 0.0
    vertex 34.266701705648636 77.97588832206802 0.0
    vertex 34.266701705648636 75.97588832206803 0.0
  endloop
endfacet
facet normal 0.0 0.0 -1.0
  outer loop
    vertex 22.266701705648636 82.34353113326245 0.0
    vertex 10.266701705648638 75.97588832206803 0.0
    vertex 10.266701705648638 77.97588832206802 0.0
  endloop
endfacet
facet normal 0.0 0.0 -1.0
  outer loop
    vertex 10.266701705648638 75.97588832206803 0.0
    vertex 22.266701705648636 82.34353113326245 0.0
    vertex 12.266701705648636 75.97588832206803 0.0
  endloop
endfacet
facet normal 0.0 0.0 -1.0
  outer loop
    vertex 12.266701705648636 75.97588832206803 0.0
    vertex 22.266701705648636 82.34353113326245 0.0
    vertex 12.266701705648636 61.97588832206803 0.0
  endloop
endfacet
facet normal 0.0 0.0 -1.0
  outer loop
    vertex 12.266701705648636 61.97588832206803 0.0
    vertex 22.266701705648636 82.34353113326245 0.0
    vertex 32.266701705648636 61.97588832206803 0.0
  endloop
endfacet
facet normal 0.0 0.0 -1.0
  outer loop
    vertex 32.266701705648636 61.97588832206803 0.0
    vertex 22.266701705648636 82.34353113326245 0.0
    vertex 32.266701705648636 75.97588832206803 0.0
  endloop
endfacet
facet normal 0.34202014332566893 0.9396926207859083 0.0
  outer loop
    vertex 22.266701705648636 82.34353113326245 26.000000000000014
    vertex 34.266701705648636 77.97588832206802 0.0
    vertex 22.266701705648636 82.34353113326245 0.0
  endloop
endfacet
facet normal 0.34202014332566893 0.9396926207859083 0.0
  outer loop
    vertex 34.266701705648636 77.97588832206802 0.0
    vertex 22.266701705648636 82.34353113326245 26.000000000000014
    vertex 34.266701705648636 77.97588832206802 26.000000000000014
  endloop
endfacet
facet normal 0.0 -1.0 0.0
  outer loop
    vertex 34.266701705648636 75.97588832206803 26.000000000000014
    vertex 32.266701705648636 75.97588832206803 0.0
    vertex 34.266701705648636 75.97588832206803 0.0
  endloop
endfacet
facet normal 0.0 -1.0 0.0
  outer loop
    vertex 32.266701705648636 75.97588832206803 0.0
    vertex 34.266701705648636 75.97588832206803 26.000000000000014
    vertex 32.266701705648636 75.97588832206803 26.000000000000014
  endloop
endfacet
facet normal 1.0 0.0 0.0
  outer loop
    vertex 34.266701705648636 77.97588832206802 0.0
    vertex 34.266701705648636 75.97588832206803 26.000000000000014
    vertex 34.266701705648636 75.97588832206803 0.0
  endloop
endfacet
facet normal 1.0 0.0 0.0
  outer loop
    vertex 34.266701705648636 75.97588832206803 26.000000000000014
    vertex 34.266701705648636 77.97588832206802 0.0
    vertex 34.266701705648636 77.97588832206802 26.000000000000014
  endloop
endfacet
facet normal -0.34202014332566893 0.9396926207859083 0.0
  outer loop
    vertex 10.266701705648638 77.97588832206802 26.000000000000014
    vertex 22.266701705648636 82.34353113326245 0.0
    vertex 10.266701705648638 77.97588832206802 0.0
  endloop
endfacet
facet normal -0.34202014332566893 0.9396926207859083 0.0
  outer loop
    vertex 22.266701705648636 82.34353113326245 0.0
    vertex 10.266701705648638 77.97588832206802 26.000000000000014
    vertex 22.266701705648636 82.34353113326245 26.000000000000014
  endloop
endfacet
facet normal -1.0 0.0 0.0
  outer loop
    vertex 10.266701705648638 77.97588832206802 26.000000000000014
    vertex 10.266701705648638 75.97588832206803 0.0
    vertex 10.266701705648638 75.97588832206803 26.000000000000014
  endloop
endfacet
facet normal -1.0 0.0 0.0
  outer loop
    vertex 10.266701705648638 75.97588832206803 0.0
    vertex 10.266701705648638 77.97588832206802 26.000000000000014
    vertex 10.266701705648638 77.97588832206802 0.0
  endloop
endfacet
facet normal 0.0 -1.0 0.0
  outer loop
    vertex 12.266701705648636 75.97588832206803 26.000000000000014
    vertex 10.266701705648638 75.97588832206803 0.0
    vertex 12.266701705648636 75.97588832206803 0.0
  endloop
endfacet
facet normal 0.0 -1.0 0.0
  outer loop
    vertex 10.266701705648638 75.97588832206803 0.0
    vertex 12.266701705648636 75.97588832206803 26.000000000000014
    vertex 10.266701705648638 75.97588832206803 26.000000000000014
  endloop
endfacet
facet normal 1.0 0.0 0.0
  outer loop
    vertex 14.266701705648636 73.97588832206803 1.9999999999999998
    vertex 14.266701705648636 61.97588832206803 26.000000000000004
    vertex 14.266701705648636 61.97588832206803 1.9999999999999998
  endloop
endfacet
facet normal 1.0 0.0 0.0
  outer loop
    vertex 14.266701705648636 61.97588832206803 26.000000000000004
    vertex 14.266701705648636 73.97588832206803 1.9999999999999998
    vertex 14.266701705648636 73.97588832206803 26.000000000000004
  endloop
endfacet
facet normal -1.0 0.0 0.0
  outer loop
    vertex 30.266701705648632 73.97588832206803 26.000000000000004
    vertex 30.266701705648632 61.97588832206803 1.9999999999999998
    vertex 30.266701705648632 61.97588832206803 26.000000000000004
  endloop
endfacet
facet normal -1.0 0.0 0.0
  outer loop
    vertex 30.266701705648632 61.97588832206803 1.9999999999999998
    vertex 30.266701705648632 73.97588832206803 26.000000000000004
    vertex 30.266701705648632 73.97588832206803 1.9999999999999998
  endloop
endfacet
facet normal 0.0 -1.0 0.0
  outer loop
    vertex 32.266701705648636 61.97588832206803 0.0
    vertex 30.266701705648632 61.97588832206803 1.9999999999999998
    vertex 12.266701705648636 61.97588832206803 0.0
  endloop
endfacet
facet normal 0.0 -1.0 0.0
  outer loop
    vertex 30.266701705648632 61.97588832206803 1.9999999999999998
    vertex 32.266701705648636 61.97588832206803 0.0
    vertex 32.266701705648636 61.97588832206803 26.000000000000004
  endloop
endfacet
facet normal 0.0 -1.0 0.0
  outer loop
    vertex 30.266701705648632 61.97588832206803 1.9999999999999998
    vertex 32.266701705648636 61.97588832206803 26.000000000000004
    vertex 30.266701705648632 61.97588832206803 26.000000000000004
  endloop
endfacet
facet normal 0.0 -1.0 0.0
  outer loop
    vertex 12.266701705648636 61.97588832206803 0.0
    vertex 14.266701705648636 61.97588832206803 1.9999999999999998
    vertex 12.266701705648636 61.97588832206803 26.000000000000004
  endloop
endfacet
facet normal 0.0 -1.0 0.0
  outer loop
    vertex 14.266701705648636 61.97588832206803 1.9999999999999998
    vertex 12.266701705648636 61.97588832206803 0.0
    vertex 30.266701705648632 61.97588832206803 1.9999999999999998
  endloop
endfacet
facet normal 0.0 -1.0 0.0
  outer loop
    vertex 12.266701705648636 61.97588832206803 26.000000000000004
    vertex 14.266701705648636 61.97588832206803 1.9999999999999998
    vertex 14.266701705648636 61.97588832206803 26.000000000000004
  endloop
endfacet
facet normal 1.0 0.0 0.0
  outer loop
    vertex 32.266701705648636 75.97588832206803 0.0
    vertex 32.266701705648636 61.97588832206803 26.000000000000004
    vertex 32.266701705648636 61.97588832206803 0.0
  endloop
endfacet
facet normal 1.0 0.0 0.0
  outer loop
    vertex 32.266701705648636 61.97588832206803 26.000000000000004
    vertex 32.266701705648636 75.97588832206803 0.0
    vertex 32.266701705648636 75.97588832206803 26.000000000000014
  endloop
endfacet
facet normal -1.0 0.0 0.0
  outer loop
    vertex 12.266701705648636 75.97588832206803 26.000000000000014
    vertex 12.266701705648636 61.97588832206803 0.0
    vertex 12.266701705648636 61.97588832206803 26.000000000000004
  endloop
endfacet
facet normal -1.0 0.0 0.0
  outer loop
    vertex 12.266701705648636 61.97588832206803 0.0
    vertex 12.266701705648636 75.97588832206803 26.000000000000014
    vertex 12.266701705648636 75.97588832206803 0.0
  endloop
endfacet
facet normal 0.0 -1.0 0.0
  outer loop
    vertex 30.266701705648632 73.97588832206803 26.000000000000004
    vertex 14.266701705648636 73.97588832206803 1.9999999999999998
    vertex 30.266701705648632 73.97588832206803 1.9999999999999998
  endloop
endfacet
facet normal 0.0 -1.0 0.0
  outer loop
    vertex 14.266701705648636 73.97588832206803 1.9999999999999998
    vertex 30.266701705648632 73.97588832206803 26.000000000000004
    vertex 14.266701705648636 73.97588832206803 26.000000000000004
  endloop
endfacet
facet normal -3.2149385411575206e-32 -6.426495123574521e-16 1.0
  outer loop
    vertex 14.266701705648636 61.97588832206803 26.000000000000004
    vertex 12.266701705648636 75.97588832206803 26.000000000000014
    vertex 12.266701705648636 61.97588832206803 26.000000000000004
  endloop
endfacet
facet normal -3.2149385411575206e-32 -6.426495123574521e-16 1.0
  outer loop
    vertex 32.266701705648636 61.97588832206803 26.000000000000004
    vertex 30.266701705648632 73.97588832206803 26.000000000000004
    vertex 30.266701705648632 61.97588832206803 26.000000000000004
  endloop
endfacet
facet normal -3.2149385411575206e-32 -6.426495123574521e-16 1.0
  outer loop
    vertex 12.266701705648636 75.97588832206803 26.000000000000014
    vertex 10.266701705648638 77.97588832206802 26.000000000000014
    vertex 10.266701705648638 75.97588832206803 26.000000000000014
  endloop
endfacet
facet normal -3.2149385411575206e-32 -6.426495123574521e-16 1.0
  outer loop
    vertex 10.266701705648638 77.97588832206802 26.000000000000014
    vertex 12.266701705648636 75.97588832206803 26.000000000000014
    vertex 22.266701705648636 82.34353113326245 26.000000000000014
  endloop
endfacet
facet normal -3.2149385411575206e-32 -6.426495123574521e-16 1.0
  outer loop
    vertex 22.266701705648636 82.34353113326245 26.000000000000014
    vertex 12.266701705648636 75.97588832206803 26.000000000000014
    vertex 14.266701705648636 73.97588832206803 26.000000000000004
  endloop
endfacet
facet normal -3.2149385411575206e-32 -6.426495123574521e-16 1.0
  outer loop
    vertex 14.266701705648636 73.97588832206803 26.000000000000004
    vertex 12.266701705648636 75.97588832206803 26.000000000000014
    vertex 14.266701705648636 61.97588832206803 26.000000000000004
  endloop
endfacet
facet normal -3.2149385411575206e-32 -6.426495123574521e-16 1.0
  outer loop
    vertex 22.266701705648636 82.34353113326245 26.000000000000014
    vertex 14.266701705648636 73.97588832206803 26.000000000000004
    vertex 30.266701705648632 73.97588832206803 26.000000000000004
  endloop
endfacet
facet normal -3.2149385411575206e-32 -6.426495123574521e-16 1.0
  outer loop
    vertex 22.266701705648636 82.34353113326245 26.000000000000014
    vertex 30.266701705648632 73.97588832206803 26.000000000000004
    vertex 34.266701705648636 77.97588832206802 26.000000000000014
  endloop
endfacet
facet normal -3.2149385411575206e-32 -6.426495123574521e-16 1.0
  outer loop
    vertex 34.266701705648636 77.97588832206802 26.000000000000014
    vertex 30.266701705648632 73.97588832206803 26.000000000000004
    vertex 32.266701705648636 75.97588832206803 26.000000000000014
  endloop
endfacet
facet normal -3.2149385411575206e-32 -6.426495123574521e-16 1.0
  outer loop
    vertex 32.266701705648636 75.97588832206803 26.000000000000014
    vertex 30.266701705648632 73.97588832206803 26.000000000000004
    vertex 32.266701705648636 61.97588832206803 26.000000000000004
  endloop
endfacet
facet normal -3.2149385411575206e-32 -6.426495123574521e-16 1.0
  outer loop
    vertex 34.266701705648636 77.97588832206802 26.000000000000014
    vertex 32.266701705648636 75.97588832206803 26.000000000000014
    vertex 34.266701705648636 75.97588832206803 26.000000000000014
  endloop
endfacet
endsolid Untitled
