solid bracketv4
facet normal 1.0 -3.217488885039405e-16 9.717957224917719e-16
  outer loop
    vertex 55.91651309990914 296.92165208974046 -9.717957224917719e-16
    vertex 55.91651309990914 293.92165208974046 8.288431487802294
    vertex 55.91651309990914 293.92165208974046 -9.717957224917719e-16
  endloop
endfacet
facet normal 1.0 -3.217488885039405e-16 9.717957224917719e-16
  outer loop
    vertex 55.91651309990913 276.37114183252356 3.585786437626904
    vertex 55.91651309990913 297.4727633503068 11.31050124312429
    vertex 55.91651309990913 275.85350374231854 5.5176380902050415
  endloop
endfacet
facet normal 1.0 -3.217488885039405e-16 9.717957224917719e-16
  outer loop
    vertex 55.91651309990913 297.4727633503068 11.31050124312429
    vertex 55.91651309990913 276.37114183252356 3.585786437626904
    vertex 55.91651309990914 293.92165208974046 8.288431487802294
  endloop
endfacet
facet normal 1.0 -3.217488885039405e-16 9.717957224917719e-16
  outer loop
    vertex 55.91651309990913 297.4727633503068 11.31050124312429
    vertex 55.91651309990914 293.92165208974046 8.288431487802294
    vertex 55.91651309990913 296.92165208974046 9.092279065095662
  endloop
endfacet
facet normal 1.0 -3.217488885039405e-16 9.717957224917719e-16
  outer loop
    vertex 55.91651309990913 296.92165208974046 9.092279065095662
    vertex 55.91651309990914 293.92165208974046 8.288431487802294
    vertex 55.91651309990914 296.92165208974046 -9.717957224917719e-16
  endloop
endfacet
facet normal 1.0 -3.217488885039405e-16 9.717957224917719e-16
  outer loop
    vertex 55.91651309990913 297.4727633503068 11.31050124312429
    vertex 55.91651309990913 296.92165208974046 9.092279065095662
    vertex 55.91651309990913 297.99040144051185 9.378649590546154
  endloop
endfacet
facet normal 5.213293087386861e-17 0.9659258262890683 0.2588190451025207
  outer loop
    vertex 55.91651309990913 276.37114183252356 3.585786437626904
    vertex 78.91651309990914 275.85350374231854 5.517638090205037
    vertex 78.91651309990914 276.37114183252356 3.5857864376269
  endloop
endfacet
facet normal 5.213293087386861e-17 0.9659258262890683 0.2588190451025207
  outer loop
    vertex 78.91651309990914 275.85350374231854 5.517638090205037
    vertex 55.91651309990913 276.37114183252356 3.585786437626904
    vertex 55.91651309990913 275.85350374231854 5.5176380902050415
  endloop
endfacet
facet normal -1.503982124025546e-14 1.0 -5.443667331649733e-15
  outer loop
    vertex 55.91651309990914 293.92165208974046 8.288431487802294
    vertex 59.91651309990913 293.92165208974046 0.0
    vertex 55.91651309990914 293.92165208974046 -9.717957224917719e-16
  endloop
endfacet
facet normal -1.503982124025546e-14 1.0 -5.443667331649733e-15
  outer loop
    vertex 59.91651309990913 293.92165208974046 0.0
    vertex 55.91651309990914 293.92165208974046 8.288431487802294
    vertex 59.91651309990913 293.9216520897405 8.288431487802315
  endloop
endfacet
facet normal 1.5039821240255404e-14 1.0 -5.4436673316497354e-15
  outer loop
    vertex 74.91651309990912 293.92165208974046 0.0
    vertex 78.91651309990914 293.92165208974046 8.288431487802294
    vertex 78.91651309990914 293.92165208974046 -5.978971165126801e-16
  endloop
endfacet
facet normal 1.5039821240255404e-14 1.0 -5.4436673316497354e-15
  outer loop
    vertex 78.91651309990914 293.92165208974046 8.288431487802294
    vertex 74.91651309990912 293.92165208974046 0.0
    vertex 74.91651309990912 293.9216520897405 8.288431487802315
  endloop
endfacet
facet normal -3.475528724924574e-17 -0.9659258262890683 -0.2588190451025207
  outer loop
    vertex 78.91651309990914 297.4727633503068 11.310501243124289
    vertex 55.91651309990913 297.99040144051185 9.378649590546154
    vertex 78.91651309990914 297.99040144051185 9.378649590546152
  endloop
endfacet
facet normal -3.475528724924574e-17 -0.9659258262890683 -0.2588190451025207
  outer loop
    vertex 55.91651309990913 297.99040144051185 9.378649590546154
    vertex 78.91651309990914 297.4727633503068 11.310501243124289
    vertex 55.91651309990913 297.4727633503068 11.31050124312429
  endloop
endfacet
facet normal 0.0 1.0 0.0
  outer loop
    vertex 54.91651309990913 298.9216520897404 11.69872981077807
    vertex 79.91651309990912 298.9216520897404 0.0
    vertex 54.91651309990913 298.9216520897404 0.0
  endloop
endfacet
facet normal 0.0 1.0 0.0
  outer loop
    vertex 79.91651309990912 298.9216520897404 0.0
    vertex 54.91651309990913 298.9216520897404 11.69872981077807
    vertex 79.91651309990912 298.9216520897404 11.69872981077807
  endloop
endfacet
facet normal -1.0 0.0 0.0
  outer loop
    vertex 54.91651309990913 298.9216520897404 11.69872981077807
    vertex 54.91651309990913 273.92165208974046 0.0
    vertex 54.91651309990913 273.92165208974046 5.0
  endloop
endfacet
facet normal -1.0 0.0 0.0
  outer loop
    vertex 54.91651309990913 273.92165208974046 0.0
    vertex 54.91651309990913 298.9216520897404 11.69872981077807
    vertex 54.91651309990913 298.9216520897404 0.0
  endloop
endfacet
facet normal 0.0 -1.0 0.0
  outer loop
    vertex 78.91651309990912 296.92165208974046 -5.978971165126801e-16
    vertex 55.91651309990913 296.92165208974046 9.092279065095662
    vertex 55.91651309990914 296.92165208974046 -9.717957224917719e-16
  endloop
endfacet
facet normal 0.0 -1.0 0.0
  outer loop
    vertex 55.91651309990913 296.92165208974046 9.092279065095662
    vertex 78.91651309990912 296.92165208974046 -5.978971165126801e-16
    vertex 78.91651309990914 296.92165208974046 9.09227906509566
  endloop
endfacet
facet normal -0.0 -1.0 -0.0
  outer loop
    vertex 79.91651309990912 273.92165208974046 5.0
    vertex 54.91651309990913 273.92165208974046 0.0
    vertex 79.91651309990912 273.92165208974046 0.0
  endloop
endfacet
facet normal -0.0 -1.0 -0.0
  outer loop
    vertex 54.91651309990913 273.92165208974046 0.0
    vertex 79.91651309990912 273.92165208974046 5.0
    vertex 54.91651309990913 273.92165208974046 5.0
  endloop
endfacet
facet normal 1.0 0.0 0.0
  outer loop
    vertex 79.91651309990912 298.9216520897404 0.0
    vertex 79.91651309990912 273.92165208974046 5.0
    vertex 79.91651309990912 273.92165208974046 0.0
  endloop
endfacet
facet normal 1.0 0.0 0.0
  outer loop
    vertex 79.91651309990912 273.92165208974046 5.0
    vertex 79.91651309990912 298.9216520897404 0.0
    vertex 79.91651309990912 298.9216520897404 11.69872981077807
  endloop
endfacet
facet normal 0.0 1.0 0.0
  outer loop
    vertex 59.91651309990913 278.9216520897404 4.269193601335448
    vertex 74.91651309990912 278.9216520897404 1.9999999999999998
    vertex 59.91651309990913 278.9216520897404 1.9999999999999998
  endloop
endfacet
facet normal 0.0 1.0 0.0
  outer loop
    vertex 74.91651309990912 278.9216520897404 1.9999999999999998
    vertex 59.91651309990913 278.9216520897404 4.269193601335448
    vertex 74.91651309990912 278.9216520897404 4.269193601335445
  endloop
endfacet
facet normal -1.0 0.0 0.0
  outer loop
    vertex 74.91651309990912 293.9216520897405 8.288431487802315
    vertex 74.91651309990912 278.9216520897404 1.9999999999999998
    vertex 74.91651309990912 278.9216520897404 4.269193601335445
  endloop
endfacet
facet normal -1.0 0.0 0.0
  outer loop
    vertex 74.91651309990912 278.9216520897404 1.9999999999999998
    vertex 74.91651309990912 293.9216520897405 8.288431487802315
    vertex 74.91651309990912 286.4216520897404 1.9999999999999998
  endloop
endfacet
facet normal -1.0 0.0 0.0
  outer loop
    vertex 74.91651309990912 286.4216520897404 1.9999999999999998
    vertex 74.91651309990912 293.9216520897405 8.288431487802315
    vertex 74.91651309990912 286.4216520897404 0.0
  endloop
endfacet
facet normal -1.0 0.0 0.0
  outer loop
    vertex 74.91651309990912 286.4216520897404 0.0
    vertex 74.91651309990912 293.9216520897405 8.288431487802315
    vertex 74.91651309990912 293.92165208974046 0.0
  endloop
endfacet
facet normal 1.0 0.0 0.0
  outer loop
    vertex 59.91651309990913 293.92165208974046 0.0
    vertex 59.91651309990913 286.4216520897404 1.9999999999999998
    vertex 59.91651309990913 286.4216520897404 0.0
  endloop
endfacet
facet normal 1.0 0.0 0.0
  outer loop
    vertex 59.91651309990913 286.4216520897404 1.9999999999999998
    vertex 59.91651309990913 278.9216520897404 4.269193601335448
    vertex 59.91651309990913 278.9216520897404 1.9999999999999998
  endloop
endfacet
facet normal 1.0 0.0 0.0
  outer loop
    vertex 59.91651309990913 278.9216520897404 4.269193601335448
    vertex 59.91651309990913 286.4216520897404 1.9999999999999998
    vertex 59.91651309990913 293.9216520897405 8.288431487802315
  endloop
endfacet
facet normal 1.0 0.0 0.0
  outer loop
    vertex 59.91651309990913 293.9216520897405 8.288431487802315
    vertex 59.91651309990913 286.4216520897404 1.9999999999999998
    vertex 59.91651309990913 293.92165208974046 0.0
  endloop
endfacet
facet normal 1.2992081830361926e-16 -0.2588190451025205 0.9659258262890684
  outer loop
    vertex 78.91651309990914 296.92165208974046 9.09227906509566
    vertex 55.91651309990913 297.99040144051185 9.378649590546154
    vertex 55.91651309990913 296.92165208974046 9.092279065095662
  endloop
endfacet
facet normal 1.2992081830361926e-16 -0.2588190451025205 0.9659258262890684
  outer loop
    vertex 55.91651309990913 297.99040144051185 9.378649590546154
    vertex 78.91651309990914 296.92165208974046 9.09227906509566
    vertex 78.91651309990914 297.99040144051185 9.378649590546152
  endloop
endfacet
facet normal 0.0 0.0 -1.0
  outer loop
    vertex 78.91651309990914 293.92165208974046 -5.978971165126801e-16
    vertex 74.91651309990912 286.4216520897404 0.0
    vertex 74.91651309990912 293.92165208974046 0.0
  endloop
endfacet
facet normal 0.0 0.0 -1.0
  outer loop
    vertex 54.91651309990913 298.9216520897404 0.0
    vertex 55.91651309990914 296.92165208974046 -9.717957224917719e-16
    vertex 54.91651309990913 273.92165208974046 0.0
  endloop
endfacet
facet normal 0.0 0.0 -1.0
  outer loop
    vertex 55.91651309990914 296.92165208974046 -9.717957224917719e-16
    vertex 54.91651309990913 298.9216520897404 0.0
    vertex 79.91651309990912 298.9216520897404 0.0
  endloop
endfacet
facet normal 0.0 0.0 -1.0
  outer loop
    vertex 55.91651309990914 296.92165208974046 -9.717957224917719e-16
    vertex 79.91651309990912 298.9216520897404 0.0
    vertex 78.91651309990912 296.92165208974046 -5.978971165126801e-16
  endloop
endfacet
facet normal 0.0 0.0 -1.0
  outer loop
    vertex 78.91651309990912 296.92165208974046 -5.978971165126801e-16
    vertex 79.91651309990912 298.9216520897404 0.0
    vertex 78.91651309990914 293.92165208974046 -5.978971165126801e-16
  endloop
endfacet
facet normal 0.0 0.0 -1.0
  outer loop
    vertex 54.91651309990913 273.92165208974046 0.0
    vertex 59.91651309990913 286.4216520897404 0.0
    vertex 79.91651309990912 273.92165208974046 0.0
  endloop
endfacet
facet normal 0.0 0.0 -1.0
  outer loop
    vertex 59.91651309990913 286.4216520897404 0.0
    vertex 54.91651309990913 273.92165208974046 0.0
    vertex 55.91651309990914 293.92165208974046 -9.717957224917719e-16
  endloop
endfacet
facet normal 0.0 0.0 -1.0
  outer loop
    vertex 55.91651309990914 293.92165208974046 -9.717957224917719e-16
    vertex 54.91651309990913 273.92165208974046 0.0
    vertex 55.91651309990914 296.92165208974046 -9.717957224917719e-16
  endloop
endfacet
facet normal 0.0 0.0 -1.0
  outer loop
    vertex 59.91651309990913 286.4216520897404 0.0
    vertex 55.91651309990914 293.92165208974046 -9.717957224917719e-16
    vertex 59.91651309990913 293.92165208974046 0.0
  endloop
endfacet
facet normal 0.0 0.0 -1.0
  outer loop
    vertex 79.91651309990912 273.92165208974046 0.0
    vertex 59.91651309990913 286.4216520897404 0.0
    vertex 74.91651309990912 286.4216520897404 0.0
  endloop
endfacet
facet normal 0.0 0.0 -1.0
  outer loop
    vertex 79.91651309990912 273.92165208974046 0.0
    vertex 74.91651309990912 286.4216520897404 0.0
    vertex 78.91651309990914 293.92165208974046 -5.978971165126801e-16
  endloop
endfacet
facet normal 0.0 0.0 -1.0
  outer loop
    vertex 79.91651309990912 273.92165208974046 0.0
    vertex 78.91651309990914 293.92165208974046 -5.978971165126801e-16
    vertex 79.91651309990912 298.9216520897404 0.0
  endloop
endfacet
facet normal 1.1270716567066255e-16 -0.25881904510252074 0.9659258262890684
  outer loop
    vertex 55.91651309990913 276.37114183252356 3.585786437626904
    vertex 59.91651309990913 278.9216520897404 4.269193601335448
    vertex 55.91651309990914 293.92165208974046 8.288431487802294
  endloop
endfacet
facet normal 1.1270716567066255e-16 -0.25881904510252074 0.9659258262890684
  outer loop
    vertex 59.91651309990913 278.9216520897404 4.269193601335448
    vertex 55.91651309990913 276.37114183252356 3.585786437626904
    vertex 78.91651309990914 276.37114183252356 3.5857864376269
  endloop
endfacet
facet normal 1.1270716567066255e-16 -0.25881904510252074 0.9659258262890684
  outer loop
    vertex 59.91651309990913 278.9216520897404 4.269193601335448
    vertex 78.91651309990914 276.37114183252356 3.5857864376269
    vertex 74.91651309990912 278.9216520897404 4.269193601335445
  endloop
endfacet
facet normal 1.1270716567066255e-16 -0.25881904510252074 0.9659258262890684
  outer loop
    vertex 74.91651309990912 278.9216520897404 4.269193601335445
    vertex 78.91651309990914 276.37114183252356 3.5857864376269
    vertex 74.91651309990912 293.9216520897405 8.288431487802315
  endloop
endfacet
facet normal 1.1270716567066255e-16 -0.25881904510252074 0.9659258262890684
  outer loop
    vertex 74.91651309990912 293.9216520897405 8.288431487802315
    vertex 78.91651309990914 276.37114183252356 3.5857864376269
    vertex 78.91651309990914 293.92165208974046 8.288431487802294
  endloop
endfacet
facet normal 1.1270716567066255e-16 -0.25881904510252074 0.9659258262890684
  outer loop
    vertex 59.91651309990913 293.9216520897405 8.288431487802315
    vertex 55.91651309990914 293.92165208974046 8.288431487802294
    vertex 59.91651309990913 278.9216520897404 4.269193601335448
  endloop
endfacet
facet normal -1.0 -1.7436063602454064e-16 5.978971165126801e-16
  outer loop
    vertex 78.91651309990914 297.4727633503068 11.310501243124289
    vertex 78.91651309990914 276.37114183252356 3.5857864376269
    vertex 78.91651309990914 275.85350374231854 5.517638090205037
  endloop
endfacet
facet normal -1.0 -1.7436063602454064e-16 5.978971165126801e-16
  outer loop
    vertex 78.91651309990914 276.37114183252356 3.5857864376269
    vertex 78.91651309990914 297.4727633503068 11.310501243124289
    vertex 78.91651309990914 293.92165208974046 8.288431487802294
  endloop
endfacet
facet normal -1.0 -1.7436063602454064e-16 5.978971165126801e-16
  outer loop
    vertex 78.91651309990914 293.92165208974046 8.288431487802294
    vertex 78.91651309990914 297.4727633503068 11.310501243124289
    vertex 78.91651309990914 293.92165208974046 -5.978971165126801e-16
  endloop
endfacet
facet normal -1.0 -1.7436063602454064e-16 5.978971165126801e-16
  outer loop
    vertex 78.91651309990914 293.92165208974046 -5.978971165126801e-16
    vertex 78.91651309990914 297.4727633503068 11.310501243124289
    vertex 78.91651309990914 296.92165208974046 9.09227906509566
  endloop
endfacet
facet normal -1.0 -1.7436063602454064e-16 5.978971165126801e-16
  outer loop
    vertex 78.91651309990914 296.92165208974046 9.09227906509566
    vertex 78.91651309990914 297.4727633503068 11.310501243124289
    vertex 78.91651309990914 297.99040144051185 9.378649590546152
  endloop
endfacet
facet normal -1.0 -1.7436063602454064e-16 5.978971165126801e-16
  outer loop
    vertex 78.91651309990912 296.92165208974046 -5.978971165126801e-16
    vertex 78.91651309990914 293.92165208974046 -5.978971165126801e-16
    vertex 78.91651309990914 296.92165208974046 9.09227906509566
  endloop
endfacet
facet normal 0.0 -0.2588190451025209 0.9659258262890684
  outer loop
    vertex 54.91651309990913 273.92165208974046 5.0
    vertex 55.91651309990913 275.85350374231854 5.5176380902050415
    vertex 54.91651309990913 298.9216520897404 11.69872981077807
  endloop
endfacet
facet normal 0.0 -0.2588190451025209 0.9659258262890684
  outer loop
    vertex 55.91651309990913 275.85350374231854 5.5176380902050415
    vertex 54.91651309990913 273.92165208974046 5.0
    vertex 79.91651309990912 273.92165208974046 5.0
  endloop
endfacet
facet normal 0.0 -0.2588190451025209 0.9659258262890684
  outer loop
    vertex 55.91651309990913 275.85350374231854 5.5176380902050415
    vertex 79.91651309990912 273.92165208974046 5.0
    vertex 78.91651309990914 275.85350374231854 5.517638090205037
  endloop
endfacet
facet normal 0.0 -0.2588190451025209 0.9659258262890684
  outer loop
    vertex 78.91651309990914 275.85350374231854 5.517638090205037
    vertex 79.91651309990912 273.92165208974046 5.0
    vertex 78.91651309990914 297.4727633503068 11.310501243124289
  endloop
endfacet
facet normal 0.0 -0.2588190451025209 0.9659258262890684
  outer loop
    vertex 54.91651309990913 298.9216520897404 11.69872981077807
    vertex 55.91651309990913 297.4727633503068 11.31050124312429
    vertex 79.91651309990912 298.9216520897404 11.69872981077807
  endloop
endfacet
facet normal 0.0 -0.2588190451025209 0.9659258262890684
  outer loop
    vertex 55.91651309990913 297.4727633503068 11.31050124312429
    vertex 54.91651309990913 298.9216520897404 11.69872981077807
    vertex 55.91651309990913 275.85350374231854 5.5176380902050415
  endloop
endfacet
facet normal 0.0 -0.2588190451025209 0.9659258262890684
  outer loop
    vertex 79.91651309990912 298.9216520897404 11.69872981077807
    vertex 55.91651309990913 297.4727633503068 11.31050124312429
    vertex 78.91651309990914 297.4727633503068 11.310501243124289
  endloop
endfacet
facet normal 0.0 -0.2588190451025209 0.9659258262890684
  outer loop
    vertex 79.91651309990912 298.9216520897404 11.69872981077807
    vertex 78.91651309990914 297.4727633503068 11.310501243124289
    vertex 79.91651309990912 273.92165208974046 5.0
  endloop
endfacet
facet normal 0.0 0.0 1.0
  outer loop
    vertex 74.91651309990912 278.9216520897404 1.9999999999999998
    vertex 59.91651309990913 286.4216520897404 1.9999999999999998
    vertex 59.91651309990913 278.9216520897404 1.9999999999999998
  endloop
endfacet
facet normal 0.0 0.0 1.0
  outer loop
    vertex 59.91651309990913 286.4216520897404 1.9999999999999998
    vertex 74.91651309990912 278.9216520897404 1.9999999999999998
    vertex 74.91651309990912 286.4216520897404 1.9999999999999998
  endloop
endfacet
facet normal 0.0 1.0 0.0
  outer loop
    vertex 59.91651309990913 286.4216520897404 1.9999999999999998
    vertex 74.91651309990912 286.4216520897404 0.0
    vertex 59.91651309990913 286.4216520897404 0.0
  endloop
endfacet
facet normal 0.0 1.0 0.0
  outer loop
    vertex 74.91651309990912 286.4216520897404 0.0
    vertex 59.91651309990913 286.4216520897404 1.9999999999999998
    vertex 74.91651309990912 286.4216520897404 1.9999999999999998
  endloop
endfacet
endsolid bracketv4
